# xmcd
#
# Track frame offsets:
#	150
#	16464
#	33887
#	51219
#	77035
#	101318
#	115059
#	127379
#	143087
#	160741
#	184681
#
# Disc length: 2745 seconds
#
# Revision: 0
# Processed by: cddbd v1.5.2PL0 Copyright (c) Steve Scherf et al.
# Submitted via: EasyCDDAExtractor 15.2.5.1
#
DISCID=890ab70b
DTITLE=CYNDI LAUPER - MEMPHIS BLUES
DYEAR=1900
DGENRE=
TTITLE0=JUST YOUR FOOL
TTITLE1=SHATTERED DREAMS
TTITLE2=EARLY IN THE MORNIN'
TTITLE3=ROMANCE IN THE DARK
TTITLE4=HOW BLUE CAN YOU GET?
TTITLE5=DOWN DON'T BOTHER ME
TTITLE6=DON'T CRY NO MORE
TTITLE7=ROLLIN' AND TUMBLIN'
TTITLE8=DOWN SO LOW
TTITLE9=MOTHER EARTH
TTITLE10=CROSSROADS
EXTD=
EXTT0=
EXTT1=
EXTT2=
EXTT3=
EXTT4=
EXTT5=
EXTT6=
EXTT7=
EXTT8=
EXTT9=
EXTT10=
PLAYORDER=
